{
	"patcher" : 	{
		"fileversion" : 1,
		"appversion" : 		{
			"major" : 6,
			"minor" : 1,
			"revision" : 9,
			"architecture" : "x86"
		}
,
		"rect" : [ 8.0, 51.0, 1600.0, 801.0 ],
		"bgcolor" : [ 1.0, 1.0, 1.0, 0.0 ],
		"bglocked" : 0,
		"openinpresentation" : 1,
		"default_fontsize" : 12.0,
		"default_fontface" : 0,
		"default_fontname" : "Arial",
		"gridonopen" : 0,
		"gridsize" : [ 5.0, 5.0 ],
		"gridsnaponopen" : 0,
		"statusbarvisible" : 0,
		"toolbarvisible" : 1,
		"boxanimatetime" : 200,
		"imprint" : 0,
		"enablehscroll" : 1,
		"enablevscroll" : 1,
		"devicewidth" : 0.0,
		"description" : "",
		"digest" : "",
		"tags" : "",
		"boxes" : [ 			{
				"box" : 				{
					"fontname" : "Arial",
					"fontsize" : 12.0,
					"id" : "obj-88",
					"maxclass" : "newobj",
					"numinlets" : 1,
					"numoutlets" : 1,
					"outlettype" : [ "" ],
					"patching_rect" : [ 575.0, 260.0, 94.0, 20.0 ],
					"text" : "expr pow($f1\\,4)"
				}

			}
, 			{
				"box" : 				{
					"fontname" : "Arial",
					"fontsize" : 12.0,
					"id" : "obj-67",
					"maxclass" : "newobj",
					"numinlets" : 1,
					"numoutlets" : 1,
					"outlettype" : [ "" ],
					"patching_rect" : [ 482.5, 217.0, 66.0, 20.0 ],
					"text" : "invhermite"
				}

			}
, 			{
				"box" : 				{
					"fontname" : "Arial",
					"fontsize" : 12.0,
					"id" : "obj-58",
					"maxclass" : "newobj",
					"numinlets" : 1,
					"numoutlets" : 1,
					"outlettype" : [ "" ],
					"patching_rect" : [ 674.5, 405.0, 95.0, 20.0 ],
					"text" : "prepend /thresh"
				}

			}
, 			{
				"box" : 				{
					"fontname" : "Arial",
					"fontsize" : 12.0,
					"id" : "obj-59",
					"maxclass" : "newobj",
					"numinlets" : 1,
					"numoutlets" : 0,
					"patching_rect" : [ 672.5, 440.0, 50.0, 20.0 ],
					"text" : "s ouput"
				}

			}
, 			{
				"box" : 				{
					"fontname" : "Arial",
					"fontsize" : 12.0,
					"id" : "obj-57",
					"maxclass" : "newobj",
					"numinlets" : 2,
					"numoutlets" : 2,
					"outlettype" : [ "float", "" ],
					"patcher" : 					{
						"fileversion" : 1,
						"appversion" : 						{
							"major" : 6,
							"minor" : 1,
							"revision" : 9,
							"architecture" : "x86"
						}
,
						"rect" : [ 351.0, 138.0, 640.0, 480.0 ],
						"bglocked" : 0,
						"openinpresentation" : 0,
						"default_fontsize" : 12.0,
						"default_fontface" : 0,
						"default_fontname" : "Arial",
						"gridonopen" : 0,
						"gridsize" : [ 5.0, 5.0 ],
						"gridsnaponopen" : 0,
						"statusbarvisible" : 2,
						"toolbarvisible" : 1,
						"boxanimatetime" : 200,
						"imprint" : 0,
						"enablehscroll" : 1,
						"enablevscroll" : 1,
						"devicewidth" : 0.0,
						"description" : "",
						"digest" : "",
						"tags" : "",
						"boxes" : [ 							{
								"box" : 								{
									"comment" : "",
									"id" : "obj-4",
									"maxclass" : "outlet",
									"numinlets" : 1,
									"numoutlets" : 0,
									"patching_rect" : [ 385.0, 435.0, 25.0, 25.0 ]
								}

							}
, 							{
								"box" : 								{
									"fontname" : "Arial",
									"fontsize" : 12.0,
									"id" : "obj-54",
									"maxclass" : "message",
									"numinlets" : 2,
									"numoutlets" : 1,
									"outlettype" : [ "" ],
									"patching_rect" : [ 375.0, 405.0, 186.0, 18.0 ],
									"text" : "text $1, bgoncolor $1 0 0 1, bang"
								}

							}
, 							{
								"box" : 								{
									"comment" : "",
									"id" : "obj-3",
									"maxclass" : "inlet",
									"numinlets" : 0,
									"numoutlets" : 1,
									"outlettype" : [ "" ],
									"patching_rect" : [ 395.0, 110.0, 25.0, 25.0 ]
								}

							}
, 							{
								"box" : 								{
									"comment" : "",
									"id" : "obj-2",
									"maxclass" : "outlet",
									"numinlets" : 1,
									"numoutlets" : 0,
									"patching_rect" : [ 237.5, 480.0, 25.0, 25.0 ]
								}

							}
, 							{
								"box" : 								{
									"comment" : "",
									"id" : "obj-1",
									"maxclass" : "inlet",
									"numinlets" : 0,
									"numoutlets" : 1,
									"outlettype" : [ "signal" ],
									"patching_rect" : [ 295.0, 5.0, 25.0, 25.0 ]
								}

							}
, 							{
								"box" : 								{
									"fontname" : "Arial",
									"fontsize" : 12.0,
									"id" : "obj-46",
									"maxclass" : "newobj",
									"numinlets" : 2,
									"numoutlets" : 1,
									"outlettype" : [ "float" ],
									"patching_rect" : [ 237.5, 445.0, 32.5, 20.0 ],
									"text" : "f"
								}

							}
, 							{
								"box" : 								{
									"fontname" : "Arial",
									"fontsize" : 12.0,
									"id" : "obj-35",
									"maxclass" : "newobj",
									"numinlets" : 6,
									"numoutlets" : 1,
									"outlettype" : [ "" ],
									"patching_rect" : [ 144.5, 140.0, 132.0, 20.0 ],
									"text" : "z.scale -120 12. 0. 1. 3"
								}

							}
, 							{
								"box" : 								{
									"id" : "obj-34",
									"maxclass" : "levelmeter~",
									"numinlets" : 1,
									"numoutlets" : 1,
									"outlettype" : [ "int" ],
									"patching_rect" : [ 144.5, 60.0, 128.0, 64.0 ]
								}

							}
, 							{
								"box" : 								{
									"fontname" : "Arial",
									"fontsize" : 12.0,
									"id" : "obj-31",
									"maxclass" : "newobj",
									"numinlets" : 2,
									"numoutlets" : 2,
									"outlettype" : [ "signal", "signal" ],
									"patching_rect" : [ 144.5, 15.0, 70.0, 20.0 ],
									"text" : "cross~ 200"
								}

							}
, 							{
								"box" : 								{
									"fontname" : "Arial",
									"fontsize" : 12.0,
									"id" : "obj-52",
									"maxclass" : "newobj",
									"numinlets" : 2,
									"numoutlets" : 1,
									"outlettype" : [ "float" ],
									"patching_rect" : [ 202.0, 236.0, 33.0, 20.0 ],
									"text" : "* -1."
								}

							}
, 							{
								"box" : 								{
									"fontname" : "Arial",
									"fontsize" : 12.0,
									"id" : "obj-49",
									"maxclass" : "flonum",
									"numinlets" : 1,
									"numoutlets" : 2,
									"outlettype" : [ "float", "bang" ],
									"parameter_enable" : 0,
									"patching_rect" : [ 390.0, 185.0, 50.0, 20.0 ]
								}

							}
, 							{
								"box" : 								{
									"fontname" : "Arial",
									"fontsize" : 12.0,
									"id" : "obj-26",
									"maxclass" : "newobj",
									"numinlets" : 1,
									"numoutlets" : 2,
									"outlettype" : [ "int", "int" ],
									"patching_rect" : [ 177.0, 379.0, 34.0, 20.0 ],
									"text" : "t 0 1"
								}

							}
, 							{
								"box" : 								{
									"fontname" : "Arial",
									"fontsize" : 12.0,
									"id" : "obj-24",
									"maxclass" : "newobj",
									"numinlets" : 2,
									"numoutlets" : 2,
									"outlettype" : [ "bang", "" ],
									"patching_rect" : [ 177.0, 349.5, 36.0, 20.0 ],
									"text" : "sel 1"
								}

							}
, 							{
								"box" : 								{
									"fontname" : "Arial",
									"fontsize" : 12.0,
									"id" : "obj-22",
									"maxclass" : "newobj",
									"numinlets" : 1,
									"numoutlets" : 3,
									"outlettype" : [ "", "int", "int" ],
									"patching_rect" : [ 177.0, 310.0, 63.0, 20.0 ],
									"text" : "change 0."
								}

							}
, 							{
								"box" : 								{
									"fontname" : "Arial",
									"fontsize" : 12.0,
									"id" : "obj-20",
									"maxclass" : "newobj",
									"numinlets" : 1,
									"numoutlets" : 3,
									"outlettype" : [ "int", "int", "bang" ],
									"patching_rect" : [ 88.0, 379.0, 46.0, 20.0 ],
									"text" : "t 1 2 b"
								}

							}
, 							{
								"box" : 								{
									"fontname" : "Arial",
									"fontsize" : 12.0,
									"id" : "obj-19",
									"maxclass" : "newobj",
									"numinlets" : 2,
									"numoutlets" : 2,
									"outlettype" : [ "", "" ],
									"patching_rect" : [ 98.0, 249.0, 84.0, 20.0 ],
									"text" : "gate 2 1"
								}

							}
, 							{
								"box" : 								{
									"fontname" : "Arial",
									"fontsize" : 12.0,
									"id" : "obj-17",
									"maxclass" : "newobj",
									"numinlets" : 2,
									"numoutlets" : 1,
									"outlettype" : [ "int" ],
									"patching_rect" : [ 177.0, 277.0, 42.0, 20.0 ],
									"text" : "< -0.1"
								}

							}
, 							{
								"box" : 								{
									"fontname" : "Arial",
									"fontsize" : 12.0,
									"id" : "obj-45",
									"maxclass" : "newobj",
									"numinlets" : 1,
									"numoutlets" : 3,
									"outlettype" : [ "", "int", "int" ],
									"patching_rect" : [ 88.0, 310.0, 63.0, 20.0 ],
									"text" : "change 0."
								}

							}
, 							{
								"box" : 								{
									"fontname" : "Arial",
									"fontsize" : 12.0,
									"id" : "obj-41",
									"maxclass" : "newobj",
									"numinlets" : 1,
									"numoutlets" : 3,
									"outlettype" : [ "float", "float", "float" ],
									"patching_rect" : [ 163.5, 167.0, 46.0, 20.0 ],
									"text" : "t f f f"
								}

							}
, 							{
								"box" : 								{
									"fontname" : "Arial",
									"fontsize" : 12.0,
									"id" : "obj-40",
									"maxclass" : "newobj",
									"numinlets" : 2,
									"numoutlets" : 1,
									"outlettype" : [ "float" ],
									"patching_rect" : [ 158.5, 212.0, 32.5, 20.0 ],
									"text" : "- 0."
								}

							}
, 							{
								"box" : 								{
									"fontname" : "Arial",
									"fontsize" : 12.0,
									"id" : "obj-39",
									"maxclass" : "newobj",
									"numinlets" : 2,
									"numoutlets" : 2,
									"outlettype" : [ "bang", "" ],
									"patching_rect" : [ 88.0, 349.5, 36.0, 20.0 ],
									"text" : "sel 1"
								}

							}
, 							{
								"box" : 								{
									"fontname" : "Arial",
									"fontsize" : 12.0,
									"id" : "obj-38",
									"maxclass" : "newobj",
									"numinlets" : 2,
									"numoutlets" : 1,
									"outlettype" : [ "int" ],
									"patching_rect" : [ 88.0, 277.0, 38.0, 20.0 ],
									"text" : "> 0.1"
								}

							}
 ],
						"lines" : [ 							{
								"patchline" : 								{
									"destination" : [ "obj-31", 0 ],
									"disabled" : 0,
									"hidden" : 0,
									"source" : [ "obj-1", 0 ]
								}

							}
, 							{
								"patchline" : 								{
									"destination" : [ "obj-22", 0 ],
									"disabled" : 0,
									"hidden" : 0,
									"source" : [ "obj-17", 0 ]
								}

							}
, 							{
								"patchline" : 								{
									"destination" : [ "obj-17", 0 ],
									"disabled" : 0,
									"hidden" : 0,
									"source" : [ "obj-19", 1 ]
								}

							}
, 							{
								"patchline" : 								{
									"destination" : [ "obj-38", 0 ],
									"disabled" : 0,
									"hidden" : 0,
									"source" : [ "obj-19", 0 ]
								}

							}
, 							{
								"patchline" : 								{
									"destination" : [ "obj-19", 0 ],
									"disabled" : 0,
									"hidden" : 0,
									"source" : [ "obj-20", 1 ]
								}

							}
, 							{
								"patchline" : 								{
									"destination" : [ "obj-46", 0 ],
									"disabled" : 0,
									"hidden" : 0,
									"source" : [ "obj-20", 2 ]
								}

							}
, 							{
								"patchline" : 								{
									"destination" : [ "obj-24", 0 ],
									"disabled" : 0,
									"hidden" : 0,
									"source" : [ "obj-22", 0 ]
								}

							}
, 							{
								"patchline" : 								{
									"destination" : [ "obj-26", 0 ],
									"disabled" : 0,
									"hidden" : 0,
									"source" : [ "obj-24", 0 ]
								}

							}
, 							{
								"patchline" : 								{
									"destination" : [ "obj-19", 0 ],
									"disabled" : 0,
									"hidden" : 0,
									"source" : [ "obj-26", 1 ]
								}

							}
, 							{
								"patchline" : 								{
									"destination" : [ "obj-49", 0 ],
									"disabled" : 0,
									"hidden" : 0,
									"source" : [ "obj-3", 0 ]
								}

							}
, 							{
								"patchline" : 								{
									"destination" : [ "obj-34", 0 ],
									"disabled" : 0,
									"hidden" : 0,
									"source" : [ "obj-31", 0 ]
								}

							}
, 							{
								"patchline" : 								{
									"destination" : [ "obj-35", 0 ],
									"disabled" : 0,
									"hidden" : 0,
									"source" : [ "obj-34", 0 ]
								}

							}
, 							{
								"patchline" : 								{
									"destination" : [ "obj-41", 0 ],
									"disabled" : 0,
									"hidden" : 0,
									"source" : [ "obj-35", 0 ]
								}

							}
, 							{
								"patchline" : 								{
									"destination" : [ "obj-45", 0 ],
									"disabled" : 0,
									"hidden" : 0,
									"source" : [ "obj-38", 0 ]
								}

							}
, 							{
								"patchline" : 								{
									"destination" : [ "obj-20", 0 ],
									"disabled" : 0,
									"hidden" : 0,
									"source" : [ "obj-39", 0 ]
								}

							}
, 							{
								"patchline" : 								{
									"destination" : [ "obj-19", 1 ],
									"disabled" : 0,
									"hidden" : 0,
									"source" : [ "obj-40", 0 ]
								}

							}
, 							{
								"patchline" : 								{
									"destination" : [ "obj-40", 0 ],
									"disabled" : 0,
									"hidden" : 0,
									"source" : [ "obj-41", 1 ]
								}

							}
, 							{
								"patchline" : 								{
									"destination" : [ "obj-40", 1 ],
									"disabled" : 0,
									"hidden" : 0,
									"source" : [ "obj-41", 0 ]
								}

							}
, 							{
								"patchline" : 								{
									"destination" : [ "obj-46", 1 ],
									"disabled" : 0,
									"hidden" : 0,
									"source" : [ "obj-41", 2 ]
								}

							}
, 							{
								"patchline" : 								{
									"destination" : [ "obj-39", 0 ],
									"disabled" : 0,
									"hidden" : 0,
									"source" : [ "obj-45", 0 ]
								}

							}
, 							{
								"patchline" : 								{
									"destination" : [ "obj-2", 0 ],
									"disabled" : 0,
									"hidden" : 0,
									"source" : [ "obj-46", 0 ]
								}

							}
, 							{
								"patchline" : 								{
									"destination" : [ "obj-54", 0 ],
									"disabled" : 0,
									"hidden" : 0,
									"source" : [ "obj-46", 0 ]
								}

							}
, 							{
								"patchline" : 								{
									"destination" : [ "obj-38", 1 ],
									"disabled" : 0,
									"hidden" : 0,
									"source" : [ "obj-49", 0 ]
								}

							}
, 							{
								"patchline" : 								{
									"destination" : [ "obj-52", 0 ],
									"disabled" : 0,
									"hidden" : 0,
									"source" : [ "obj-49", 0 ]
								}

							}
, 							{
								"patchline" : 								{
									"destination" : [ "obj-17", 1 ],
									"disabled" : 0,
									"hidden" : 0,
									"source" : [ "obj-52", 0 ]
								}

							}
, 							{
								"patchline" : 								{
									"destination" : [ "obj-4", 0 ],
									"disabled" : 0,
									"hidden" : 0,
									"source" : [ "obj-54", 0 ]
								}

							}
 ]
					}
,
					"patching_rect" : [ 674.5, 378.0, 54.0, 20.0 ],
					"saved_object_attributes" : 					{
						"default_fontface" : 0,
						"default_fontname" : "Arial",
						"default_fontsize" : 12.0,
						"description" : "",
						"digest" : "",
						"fontface" : 0,
						"fontname" : "Arial",
						"fontsize" : 12.0,
						"globalpatchername" : "",
						"tags" : ""
					}
,
					"text" : "p thresh"
				}

			}
, 			{
				"box" : 				{
					"bgcolor" : [ 0.0, 0.0, 0.0, 1.0 ],
					"fontname" : "Arial",
					"fontsize" : 12.0,
					"frgb" : 0.0,
					"id" : "obj-42",
					"maxclass" : "comment",
					"numinlets" : 1,
					"numoutlets" : 0,
					"patching_rect" : [ 751.5, 378.0, 150.0, 20.0 ],
					"presentation" : 1,
					"presentation_rect" : [ 0.0, 253.75, 107.5, 20.0 ],
					"prototypename" : "bb",
					"text" : "/thresh",
					"textcolor" : [ 1.0, 1.0, 1.0, 1.0 ]
				}

			}
, 			{
				"box" : 				{
					"fontname" : "Arial",
					"fontsize" : 12.0,
					"id" : "obj-27",
					"maxclass" : "newobj",
					"numinlets" : 1,
					"numoutlets" : 1,
					"outlettype" : [ "bang" ],
					"patching_rect" : [ 709.5, 315.0, 60.0, 20.0 ],
					"text" : "loadbang"
				}

			}
, 			{
				"box" : 				{
					"fontname" : "Arial",
					"fontsize" : 12.0,
					"id" : "obj-55",
					"maxclass" : "message",
					"numinlets" : 2,
					"numoutlets" : 1,
					"outlettype" : [ "" ],
					"patching_rect" : [ 709.5, 346.5, 34.0, 18.0 ],
					"text" : "0.08"
				}

			}
, 			{
				"box" : 				{
					"bgcolor" : [ 1.0, 1.0, 1.0, 1.0 ],
					"bgoncolor" : [ 0.59463, 0.0, 0.0, 1.0 ],
					"blinktime" : 75,
					"border" : 1,
					"bordercolor" : [ 0.0, 0.0, 0.0, 1.0 ],
					"borderoncolor" : [ 0.0, 0.0, 0.0, 1.0 ],
					"fontname" : "Arial",
					"fontsize" : 12.0,
					"id" : "obj-28",
					"ignoreclick" : 1,
					"maxclass" : "textbutton",
					"numinlets" : 1,
					"numoutlets" : 3,
					"outlettype" : [ "", "", "int" ],
					"parameter_enable" : 0,
					"patching_rect" : [ 775.0, 411.0, 110.0, 20.0 ],
					"presentation" : 1,
					"presentation_rect" : [ 0.0, 277.75, 107.5, 42.0 ],
					"rounded" : 2.0,
					"text" : "0.59"
				}

			}
, 			{
				"box" : 				{
					"fontname" : "Arial",
					"fontsize" : 12.0,
					"id" : "obj-23",
					"maxclass" : "newobj",
					"numinlets" : 6,
					"numoutlets" : 1,
					"outlettype" : [ "" ],
					"patching_rect" : [ 21.5, 38.0, 108.0, 20.0 ],
					"text" : "z.scale 0. 1. 0. 1 2"
				}

			}
, 			{
				"box" : 				{
					"fontname" : "Arial",
					"fontsize" : 12.0,
					"id" : "obj-13",
					"maxclass" : "newobj",
					"numinlets" : 2,
					"numoutlets" : 1,
					"outlettype" : [ "" ],
					"patching_rect" : [ 220.0, 76.0, 113.0, 20.0 ],
					"text" : "expr min($f1*$f2\\,1)"
				}

			}
, 			{
				"box" : 				{
					"fontname" : "Arial",
					"fontsize" : 12.0,
					"id" : "obj-161",
					"maxclass" : "newobj",
					"numinlets" : 6,
					"numoutlets" : 1,
					"outlettype" : [ "" ],
					"patching_rect" : [ 631.5, 94.0, 132.0, 20.0 ],
					"text" : "z.scale -120 12. 0. 1. 3"
				}

			}
, 			{
				"box" : 				{
					"fontname" : "Arial",
					"fontsize" : 12.0,
					"id" : "obj-159",
					"maxclass" : "newobj",
					"numinlets" : 1,
					"numoutlets" : 1,
					"outlettype" : [ "" ],
					"patching_rect" : [ 810.0, 795.0, 115.0, 20.0 ],
					"text" : "vexpr ($f1+96)/126."
				}

			}
, 			{
				"box" : 				{
					"fontname" : "Arial",
					"fontsize" : 12.0,
					"id" : "obj-158",
					"maxclass" : "newobj",
					"numinlets" : 1,
					"numoutlets" : 1,
					"outlettype" : [ "" ],
					"patching_rect" : [ 1436.0, 916.0, 91.0, 20.0 ],
					"text" : "prepend /note3"
				}

			}
, 			{
				"box" : 				{
					"fontname" : "Arial",
					"fontsize" : 12.0,
					"id" : "obj-157",
					"maxclass" : "newobj",
					"numinlets" : 1,
					"numoutlets" : 1,
					"outlettype" : [ "" ],
					"patching_rect" : [ 1289.0, 900.0, 91.0, 20.0 ],
					"text" : "prepend /note2"
				}

			}
, 			{
				"box" : 				{
					"bgcolor" : [ 0.0, 0.0, 0.0, 1.0 ],
					"fontname" : "Arial",
					"fontsize" : 12.0,
					"frgb" : 0.0,
					"id" : "obj-156",
					"maxclass" : "comment",
					"numinlets" : 1,
					"numoutlets" : 0,
					"patching_rect" : [ 1406.5, 629.0, 150.0, 20.0 ],
					"presentation" : 1,
					"presentation_rect" : [ 0.0, 326.5, 220.0, 20.0 ],
					"prototypename" : "bb",
					"text" : "/note,  /note2,  /note3",
					"textcolor" : [ 1.0, 1.0, 1.0, 1.0 ]
				}

			}
, 			{
				"box" : 				{
					"fontname" : "Arial",
					"fontsize" : 12.0,
					"id" : "obj-143",
					"maxclass" : "newobj",
					"numinlets" : 1,
					"numoutlets" : 3,
					"outlettype" : [ "", "", "int" ],
					"patching_rect" : [ 1378.0, 825.0, 76.0, 20.0 ],
					"text" : "noteprocess"
				}

			}
, 			{
				"box" : 				{
					"fontname" : "Arial",
					"fontsize" : 12.0,
					"frgb" : 0.0,
					"id" : "obj-144",
					"maxclass" : "comment",
					"numinlets" : 1,
					"numoutlets" : 0,
					"patching_rect" : [ 1406.5, 875.0, 150.0, 20.0 ],
					"presentation" : 1,
					"presentation_rect" : [ 162.0, 410.5, 53.0, 20.0 ],
					"text" : "43 93",
					"textjustification" : 2
				}

			}
, 			{
				"box" : 				{
					"contdata" : 1,
					"id" : "obj-146",
					"maxclass" : "multislider",
					"numinlets" : 1,
					"numoutlets" : 2,
					"outlettype" : [ "", "" ],
					"parameter_enable" : 0,
					"patching_rect" : [ 1489.0, 780.0, 165.0, 27.0 ],
					"peakcolor" : [ 0.498039, 0.498039, 0.498039, 1.0 ],
					"presentation" : 1,
					"presentation_rect" : [ 0.0, 409.5, 220.0, 31.0 ],
					"setminmax" : [ 0.0, 12.0 ],
					"setstyle" : 2,
					"thickness" : 1
				}

			}
, 			{
				"box" : 				{
					"fontname" : "Arial",
					"fontsize" : 12.0,
					"id" : "obj-138",
					"maxclass" : "newobj",
					"numinlets" : 1,
					"numoutlets" : 3,
					"outlettype" : [ "", "", "int" ],
					"patching_rect" : [ 1284.0, 805.0, 76.0, 20.0 ],
					"text" : "noteprocess"
				}

			}
, 			{
				"box" : 				{
					"fontname" : "Arial",
					"fontsize" : 12.0,
					"frgb" : 0.0,
					"id" : "obj-140",
					"maxclass" : "comment",
					"numinlets" : 1,
					"numoutlets" : 0,
					"patching_rect" : [ 1312.5, 855.0, 150.0, 20.0 ],
					"presentation" : 1,
					"presentation_rect" : [ 162.0, 380.75, 53.0, 20.0 ],
					"text" : "50 86",
					"textjustification" : 2
				}

			}
, 			{
				"box" : 				{
					"contdata" : 1,
					"id" : "obj-141",
					"maxclass" : "multislider",
					"numinlets" : 1,
					"numoutlets" : 2,
					"outlettype" : [ "", "" ],
					"parameter_enable" : 0,
					"patching_rect" : [ 1395.0, 760.0, 165.0, 27.0 ],
					"peakcolor" : [ 0.498039, 0.498039, 0.498039, 1.0 ],
					"presentation" : 1,
					"presentation_rect" : [ 0.0, 379.75, 220.0, 31.0 ],
					"setminmax" : [ 0.0, 12.0 ],
					"setstyle" : 2,
					"slidercolor" : [ 0.677234, 0.0, 0.0, 1.0 ],
					"thickness" : 1
				}

			}
, 			{
				"box" : 				{
					"fontname" : "Arial",
					"fontsize" : 12.0,
					"id" : "obj-137",
					"maxclass" : "newobj",
					"numinlets" : 1,
					"numoutlets" : 3,
					"outlettype" : [ "", "", "int" ],
					"patching_rect" : [ 1190.0, 785.0, 76.0, 20.0 ],
					"text" : "noteprocess"
				}

			}
, 			{
				"box" : 				{
					"fontname" : "Arial",
					"fontsize" : 12.0,
					"id" : "obj-122",
					"maxclass" : "newobj",
					"numinlets" : 4,
					"numoutlets" : 4,
					"outlettype" : [ "", "", "", "" ],
					"patching_rect" : [ 1190.0, 555.0, 68.0, 20.0 ],
					"text" : "route 1 2 3"
				}

			}
, 			{
				"box" : 				{
					"fontname" : "Arial",
					"fontsize" : 12.0,
					"id" : "obj-105",
					"maxclass" : "newobj",
					"numinlets" : 6,
					"numoutlets" : 1,
					"outlettype" : [ "" ],
					"patching_rect" : [ 544.0, 581.0, 213.0, 20.0 ],
					"text" : "z.scale 0. 1. 0. 1. 0.00026 @mode log"
				}

			}
, 			{
				"box" : 				{
					"fontname" : "Arial",
					"fontsize" : 12.0,
					"id" : "obj-102",
					"maxclass" : "newobj",
					"numinlets" : 2,
					"numoutlets" : 1,
					"outlettype" : [ "float" ],
					"patching_rect" : [ 598.0, 535.0, 54.0, 20.0 ],
					"text" : "/ 22050."
				}

			}
, 			{
				"box" : 				{
					"fontname" : "Arial",
					"fontsize" : 12.0,
					"id" : "obj-18",
					"maxclass" : "newobj",
					"numinlets" : 1,
					"numoutlets" : 2,
					"outlettype" : [ "", "" ],
					"patching_rect" : [ 57.035583, 254.0, 32.5, 20.0 ],
					"text" : "t l l"
				}

			}
, 			{
				"box" : 				{
					"fontname" : "Arial",
					"fontsize" : 13.0,
					"id" : "obj-16",
					"maxclass" : "newobj",
					"numinlets" : 2,
					"numoutlets" : 2,
					"outlettype" : [ "", "int" ],
					"patching_rect" : [ 112.035583, 254.0, 118.0, 21.0 ],
					"text" : "adstatus overdrive"
				}

			}
, 			{
				"box" : 				{
					"fontname" : "Arial",
					"fontsize" : 12.0,
					"id" : "obj-37",
					"maxclass" : "newobj",
					"numinlets" : 6,
					"numoutlets" : 1,
					"outlettype" : [ "" ],
					"patching_rect" : [ 182.5, 38.0, 139.0, 20.0 ],
					"text" : "scale 0. 1. 0.75 1.25 1.5"
				}

			}
, 			{
				"box" : 				{
					"fontname" : "Arial",
					"fontsize" : 12.0,
					"id" : "obj-36",
					"maxclass" : "newobj",
					"numinlets" : 1,
					"numoutlets" : 2,
					"outlettype" : [ "float", "float" ],
					"patching_rect" : [ 182.5, 120.0, 32.5, 20.0 ],
					"text" : "t f f"
				}

			}
, 			{
				"box" : 				{
					"fontname" : "Arial",
					"fontsize" : 12.0,
					"id" : "obj-30",
					"maxclass" : "newobj",
					"numinlets" : 1,
					"numoutlets" : 1,
					"outlettype" : [ "" ],
					"patcher" : 					{
						"fileversion" : 1,
						"appversion" : 						{
							"major" : 6,
							"minor" : 1,
							"revision" : 9,
							"architecture" : "x86"
						}
,
						"rect" : [ 33.0, 76.0, 640.0, 480.0 ],
						"bglocked" : 0,
						"openinpresentation" : 0,
						"default_fontsize" : 12.0,
						"default_fontface" : 0,
						"default_fontname" : "Arial",
						"gridonopen" : 0,
						"gridsize" : [ 5.0, 5.0 ],
						"gridsnaponopen" : 0,
						"statusbarvisible" : 2,
						"toolbarvisible" : 1,
						"boxanimatetime" : 200,
						"imprint" : 0,
						"enablehscroll" : 1,
						"enablevscroll" : 1,
						"devicewidth" : 0.0,
						"description" : "",
						"digest" : "",
						"tags" : "",
						"boxes" : [ 							{
								"box" : 								{
									"fontname" : "Arial",
									"fontsize" : 12.0,
									"id" : "obj-11",
									"maxclass" : "flonum",
									"numinlets" : 1,
									"numoutlets" : 2,
									"outlettype" : [ "float", "bang" ],
									"parameter_enable" : 0,
									"patching_rect" : [ 485.0, 285.0, 50.0, 20.0 ]
								}

							}
, 							{
								"box" : 								{
									"fontname" : "Arial",
									"fontsize" : 12.0,
									"id" : "obj-8",
									"maxclass" : "flonum",
									"numinlets" : 1,
									"numoutlets" : 2,
									"outlettype" : [ "float", "bang" ],
									"parameter_enable" : 0,
									"patching_rect" : [ 340.0, 310.0, 50.0, 20.0 ]
								}

							}
, 							{
								"box" : 								{
									"fontname" : "Arial",
									"fontsize" : 12.0,
									"id" : "obj-9",
									"maxclass" : "message",
									"numinlets" : 2,
									"numoutlets" : 1,
									"outlettype" : [ "" ],
									"patching_rect" : [ 330.0, 50.0, 41.0, 18.0 ],
									"text" : "1000."
								}

							}
, 							{
								"box" : 								{
									"fontname" : "Arial",
									"fontsize" : 12.0,
									"id" : "obj-7",
									"maxclass" : "message",
									"numinlets" : 2,
									"numoutlets" : 1,
									"outlettype" : [ "" ],
									"patching_rect" : [ 450.0, 55.0, 32.5, 18.0 ],
									"text" : "0."
								}

							}
, 							{
								"box" : 								{
									"fontname" : "Arial",
									"fontsize" : 12.0,
									"id" : "obj-3",
									"maxclass" : "newobj",
									"numinlets" : 1,
									"numoutlets" : 1,
									"outlettype" : [ "bang" ],
									"patching_rect" : [ 385.0, 25.0, 60.0, 20.0 ],
									"text" : "loadbang"
								}

							}
, 							{
								"box" : 								{
									"fontname" : "Arial",
									"fontsize" : 12.0,
									"id" : "obj-20",
									"maxclass" : "newobj",
									"numinlets" : 1,
									"numoutlets" : 2,
									"outlettype" : [ "bang", "float" ],
									"patching_rect" : [ 415.0, 150.0, 32.5, 20.0 ],
									"text" : "t b f"
								}

							}
, 							{
								"box" : 								{
									"fontname" : "Arial",
									"fontsize" : 12.0,
									"id" : "obj-21",
									"maxclass" : "newobj",
									"numinlets" : 2,
									"numoutlets" : 1,
									"outlettype" : [ "bang" ],
									"patching_rect" : [ 496.0, 160.0, 76.0, 20.0 ],
									"text" : "delay 10000"
								}

							}
, 							{
								"box" : 								{
									"fontname" : "Arial",
									"fontsize" : 12.0,
									"id" : "obj-22",
									"maxclass" : "newobj",
									"numinlets" : 2,
									"numoutlets" : 1,
									"outlettype" : [ "" ],
									"patching_rect" : [ 415.0, 110.0, 121.0, 20.0 ],
									"text" : "if $f1 >= $f2 then $f1"
								}

							}
, 							{
								"box" : 								{
									"fontname" : "Arial",
									"fontsize" : 12.0,
									"id" : "obj-23",
									"maxclass" : "message",
									"numinlets" : 2,
									"numoutlets" : 1,
									"outlettype" : [ "" ],
									"patching_rect" : [ 496.0, 195.0, 57.0, 18.0 ],
									"text" : "0. 30000"
								}

							}
, 							{
								"box" : 								{
									"fontname" : "Arial",
									"fontsize" : 12.0,
									"id" : "obj-24",
									"maxclass" : "newobj",
									"numinlets" : 3,
									"numoutlets" : 2,
									"outlettype" : [ "", "" ],
									"patching_rect" : [ 415.0, 215.0, 46.0, 20.0 ],
									"text" : "line 0."
								}

							}
, 							{
								"box" : 								{
									"fontname" : "Arial",
									"fontsize" : 12.0,
									"id" : "obj-19",
									"maxclass" : "newobj",
									"numinlets" : 1,
									"numoutlets" : 2,
									"outlettype" : [ "bang", "float" ],
									"patching_rect" : [ 215.0, 150.0, 32.5, 20.0 ],
									"text" : "t b f"
								}

							}
, 							{
								"box" : 								{
									"fontname" : "Arial",
									"fontsize" : 12.0,
									"id" : "obj-18",
									"maxclass" : "newobj",
									"numinlets" : 2,
									"numoutlets" : 1,
									"outlettype" : [ "bang" ],
									"patching_rect" : [ 296.0, 160.0, 76.0, 20.0 ],
									"text" : "delay 10000"
								}

							}
, 							{
								"box" : 								{
									"fontname" : "Arial",
									"fontsize" : 12.0,
									"id" : "obj-15",
									"maxclass" : "newobj",
									"numinlets" : 2,
									"numoutlets" : 1,
									"outlettype" : [ "" ],
									"patching_rect" : [ 215.0, 110.0, 121.0, 20.0 ],
									"text" : "if $f1 <= $f2 then $f1"
								}

							}
, 							{
								"box" : 								{
									"fontname" : "Arial",
									"fontsize" : 12.0,
									"id" : "obj-16",
									"maxclass" : "message",
									"numinlets" : 2,
									"numoutlets" : 1,
									"outlettype" : [ "" ],
									"patching_rect" : [ 296.0, 195.0, 77.0, 18.0 ],
									"text" : "1000. 30000"
								}

							}
, 							{
								"box" : 								{
									"fontname" : "Arial",
									"fontsize" : 12.0,
									"id" : "obj-17",
									"maxclass" : "newobj",
									"numinlets" : 3,
									"numoutlets" : 2,
									"outlettype" : [ "", "" ],
									"patching_rect" : [ 215.0, 215.0, 46.0, 20.0 ],
									"text" : "line 0."
								}

							}
, 							{
								"box" : 								{
									"fontname" : "Arial",
									"fontsize" : 12.0,
									"id" : "obj-5",
									"maxclass" : "newobj",
									"numinlets" : 6,
									"numoutlets" : 1,
									"outlettype" : [ "" ],
									"patching_rect" : [ 155.0, 300.0, 112.0, 20.0 ],
									"text" : "scale 0. 1000. 0. 1."
								}

							}
, 							{
								"box" : 								{
									"fontname" : "Arial",
									"fontsize" : 12.0,
									"id" : "obj-4",
									"maxclass" : "newobj",
									"numinlets" : 1,
									"numoutlets" : 3,
									"outlettype" : [ "float", "float", "float" ],
									"patching_rect" : [ 170.0, 60.0, 46.0, 20.0 ],
									"text" : "t f f f"
								}

							}
, 							{
								"box" : 								{
									"comment" : "",
									"id" : "obj-2",
									"maxclass" : "outlet",
									"numinlets" : 1,
									"numoutlets" : 0,
									"patching_rect" : [ 155.0, 415.0, 25.0, 25.0 ]
								}

							}
, 							{
								"box" : 								{
									"comment" : "",
									"id" : "obj-1",
									"maxclass" : "inlet",
									"numinlets" : 0,
									"numoutlets" : 1,
									"outlettype" : [ "float" ],
									"patching_rect" : [ 140.0, 15.0, 25.0, 25.0 ]
								}

							}
 ],
						"lines" : [ 							{
								"patchline" : 								{
									"destination" : [ "obj-4", 0 ],
									"disabled" : 0,
									"hidden" : 0,
									"source" : [ "obj-1", 0 ]
								}

							}
, 							{
								"patchline" : 								{
									"destination" : [ "obj-19", 0 ],
									"disabled" : 0,
									"hidden" : 0,
									"source" : [ "obj-15", 0 ]
								}

							}
, 							{
								"patchline" : 								{
									"destination" : [ "obj-17", 0 ],
									"disabled" : 0,
									"hidden" : 0,
									"source" : [ "obj-16", 0 ]
								}

							}
, 							{
								"patchline" : 								{
									"destination" : [ "obj-15", 1 ],
									"disabled" : 0,
									"hidden" : 0,
									"source" : [ "obj-17", 0 ]
								}

							}
, 							{
								"patchline" : 								{
									"destination" : [ "obj-5", 1 ],
									"disabled" : 0,
									"hidden" : 0,
									"source" : [ "obj-17", 0 ]
								}

							}
, 							{
								"patchline" : 								{
									"destination" : [ "obj-8", 0 ],
									"disabled" : 0,
									"hidden" : 0,
									"source" : [ "obj-17", 0 ]
								}

							}
, 							{
								"patchline" : 								{
									"destination" : [ "obj-16", 0 ],
									"disabled" : 0,
									"hidden" : 0,
									"source" : [ "obj-18", 0 ]
								}

							}
, 							{
								"patchline" : 								{
									"destination" : [ "obj-17", 0 ],
									"disabled" : 0,
									"hidden" : 0,
									"source" : [ "obj-19", 1 ]
								}

							}
, 							{
								"patchline" : 								{
									"destination" : [ "obj-18", 0 ],
									"disabled" : 0,
									"hidden" : 0,
									"source" : [ "obj-19", 0 ]
								}

							}
, 							{
								"patchline" : 								{
									"destination" : [ "obj-21", 0 ],
									"disabled" : 0,
									"hidden" : 0,
									"source" : [ "obj-20", 0 ]
								}

							}
, 							{
								"patchline" : 								{
									"destination" : [ "obj-24", 0 ],
									"disabled" : 0,
									"hidden" : 0,
									"source" : [ "obj-20", 1 ]
								}

							}
, 							{
								"patchline" : 								{
									"destination" : [ "obj-23", 0 ],
									"disabled" : 0,
									"hidden" : 0,
									"source" : [ "obj-21", 0 ]
								}

							}
, 							{
								"patchline" : 								{
									"destination" : [ "obj-20", 0 ],
									"disabled" : 0,
									"hidden" : 0,
									"source" : [ "obj-22", 0 ]
								}

							}
, 							{
								"patchline" : 								{
									"destination" : [ "obj-24", 0 ],
									"disabled" : 0,
									"hidden" : 0,
									"source" : [ "obj-23", 0 ]
								}

							}
, 							{
								"patchline" : 								{
									"destination" : [ "obj-11", 0 ],
									"disabled" : 0,
									"hidden" : 0,
									"source" : [ "obj-24", 0 ]
								}

							}
, 							{
								"patchline" : 								{
									"destination" : [ "obj-22", 1 ],
									"disabled" : 0,
									"hidden" : 0,
									"source" : [ "obj-24", 0 ]
								}

							}
, 							{
								"patchline" : 								{
									"destination" : [ "obj-5", 2 ],
									"disabled" : 0,
									"hidden" : 0,
									"source" : [ "obj-24", 0 ]
								}

							}
, 							{
								"patchline" : 								{
									"destination" : [ "obj-7", 0 ],
									"disabled" : 0,
									"hidden" : 0,
									"source" : [ "obj-3", 0 ]
								}

							}
, 							{
								"patchline" : 								{
									"destination" : [ "obj-9", 0 ],
									"disabled" : 0,
									"hidden" : 0,
									"source" : [ "obj-3", 0 ]
								}

							}
, 							{
								"patchline" : 								{
									"destination" : [ "obj-15", 0 ],
									"disabled" : 0,
									"hidden" : 0,
									"source" : [ "obj-4", 1 ]
								}

							}
, 							{
								"patchline" : 								{
									"destination" : [ "obj-22", 0 ],
									"disabled" : 0,
									"hidden" : 0,
									"source" : [ "obj-4", 2 ]
								}

							}
, 							{
								"patchline" : 								{
									"destination" : [ "obj-5", 0 ],
									"disabled" : 0,
									"hidden" : 0,
									"source" : [ "obj-4", 0 ]
								}

							}
, 							{
								"patchline" : 								{
									"destination" : [ "obj-2", 0 ],
									"disabled" : 0,
									"hidden" : 0,
									"source" : [ "obj-5", 0 ]
								}

							}
, 							{
								"patchline" : 								{
									"destination" : [ "obj-22", 1 ],
									"disabled" : 0,
									"hidden" : 0,
									"source" : [ "obj-7", 0 ]
								}

							}
, 							{
								"patchline" : 								{
									"destination" : [ "obj-15", 1 ],
									"disabled" : 0,
									"hidden" : 0,
									"source" : [ "obj-9", 0 ]
								}

							}
 ]
					}
,
					"patching_rect" : [ 182.5, 1.0, 75.0, 20.0 ],
					"saved_object_attributes" : 					{
						"default_fontface" : 0,
						"default_fontname" : "Arial",
						"default_fontsize" : 12.0,
						"description" : "",
						"digest" : "",
						"fontface" : 0,
						"fontname" : "Arial",
						"fontsize" : 12.0,
						"globalpatchername" : "",
						"tags" : ""
					}
,
					"text" : "p autorange"
				}

			}
, 			{
				"box" : 				{
					"fontname" : "Arial",
					"fontsize" : 13.0,
					"id" : "obj-15",
					"maxclass" : "newobj",
					"numinlets" : 2,
					"numoutlets" : 2,
					"outlettype" : [ "jit_matrix", "" ],
					"patching_rect" : [ 460.0, 429.0, 129.0, 21.0 ],
					"text" : "jit.op @op !- @val 1."
				}

			}
, 			{
				"box" : 				{
					"fontname" : "Arial",
					"fontsize" : 12.0,
					"id" : "obj-6",
					"maxclass" : "newobj",
					"numinlets" : 2,
					"numoutlets" : 1,
					"outlettype" : [ "float" ],
					"patching_rect" : [ 460.0, 26.0, 32.5, 20.0 ],
					"text" : "f"
				}

			}
, 			{
				"box" : 				{
					"comment" : "",
					"id" : "obj-5",
					"maxclass" : "outlet",
					"numinlets" : 1,
					"numoutlets" : 0,
					"patching_rect" : [ 1100.0, 295.0, 25.0, 25.0 ]
				}

			}
, 			{
				"box" : 				{
					"fontname" : "Arial",
					"fontsize" : 12.0,
					"id" : "obj-12",
					"maxclass" : "newobj",
					"numinlets" : 1,
					"numoutlets" : 1,
					"outlettype" : [ "" ],
					"patching_rect" : [ 709.5, 132.0, 77.0, 20.0 ],
					"text" : "prepend set"
				}

			}
, 			{
				"box" : 				{
					"fontname" : "Arial",
					"fontsize" : 12.0,
					"frgb" : 0.0,
					"id" : "obj-9",
					"maxclass" : "comment",
					"numinlets" : 1,
					"numoutlets" : 0,
					"patching_rect" : [ 709.5, 163.0, 150.0, 20.0 ],
					"presentation" : 1,
					"presentation_rect" : [ 0.0, 134.25, 40.5, 20.0 ],
					"text" : "0.55"
				}

			}
, 			{
				"box" : 				{
					"fontname" : "Arial",
					"fontsize" : 12.0,
					"id" : "obj-8",
					"maxclass" : "newobj",
					"numinlets" : 1,
					"numoutlets" : 3,
					"outlettype" : [ "", "int", "int" ],
					"patching_rect" : [ 564.75, 30.0, 63.0, 20.0 ],
					"text" : "change 0."
				}

			}
, 			{
				"box" : 				{
					"fontname" : "Arial",
					"fontsize" : 12.0,
					"id" : "obj-4",
					"maxclass" : "newobj",
					"numinlets" : 2,
					"numoutlets" : 2,
					"outlettype" : [ "", "" ],
					"patching_rect" : [ 843.0, 629.0, 62.0, 20.0 ],
					"text" : "zl change"
				}

			}
, 			{
				"box" : 				{
					"fontname" : "Arial",
					"fontsize" : 12.0,
					"id" : "obj-2",
					"maxclass" : "newobj",
					"numinlets" : 1,
					"numoutlets" : 3,
					"outlettype" : [ "", "int", "int" ],
					"patching_rect" : [ 751.5, 460.0, 63.0, 20.0 ],
					"text" : "change 0."
				}

			}
, 			{
				"box" : 				{
					"fontname" : "Arial",
					"fontsize" : 12.0,
					"id" : "obj-1",
					"maxclass" : "newobj",
					"numinlets" : 1,
					"numoutlets" : 3,
					"outlettype" : [ "", "int", "int" ],
					"patching_rect" : [ 484.0, 270.0, 63.0, 20.0 ],
					"text" : "change 0."
				}

			}
, 			{
				"box" : 				{
					"fontname" : "Arial",
					"fontsize" : 12.0,
					"id" : "obj-10",
					"maxclass" : "newobj",
					"numinlets" : 1,
					"numoutlets" : 1,
					"outlettype" : [ "" ],
					"patching_rect" : [ 55.0, 217.0, 72.0, 20.0 ],
					"text" : "loadmess 1"
				}

			}
, 			{
				"box" : 				{
					"fontname" : "Arial",
					"fontsize" : 13.0,
					"id" : "obj-53",
					"maxclass" : "newobj",
					"numinlets" : 2,
					"numoutlets" : 2,
					"outlettype" : [ "", "int" ],
					"patching_rect" : [ 55.0, 299.0, 114.0, 21.0 ],
					"text" : "adstatus takeover"
				}

			}
, 			{
				"box" : 				{
					"id" : "obj-11",
					"maxclass" : "bpatcher",
					"name" : "outputselector~.maxpat",
					"numinlets" : 1,
					"numoutlets" : 0,
					"patching_rect" : [ 1094.0, 198.0, 421.0, 72.0 ],
					"presentation" : 1,
					"presentation_rect" : [ 0.0, 506.0, 397.0, 89.0 ]
				}

			}
, 			{
				"box" : 				{
					"fontname" : "Arial",
					"fontsize" : 12.0,
					"id" : "obj-240",
					"maxclass" : "newobj",
					"numinlets" : 0,
					"numoutlets" : 1,
					"outlettype" : [ "" ],
					"patching_rect" : [ 89.0, 553.0, 48.0, 20.0 ],
					"text" : "r ouput"
				}

			}
, 			{
				"box" : 				{
					"fontname" : "Arial",
					"fontsize" : 12.0,
					"id" : "obj-239",
					"maxclass" : "newobj",
					"numinlets" : 1,
					"numoutlets" : 1,
					"outlettype" : [ "" ],
					"patching_rect" : [ 308.0, 120.0, 107.0, 20.0 ],
					"text" : "prepend /segment"
				}

			}
, 			{
				"box" : 				{
					"fontname" : "Arial",
					"fontsize" : 12.0,
					"id" : "obj-237",
					"maxclass" : "newobj",
					"numinlets" : 1,
					"numoutlets" : 1,
					"outlettype" : [ "" ],
					"patching_rect" : [ 441.0, 86.0, 86.0, 20.0 ],
					"text" : "prepend /level"
				}

			}
, 			{
				"box" : 				{
					"fontname" : "Arial",
					"fontsize" : 12.0,
					"id" : "obj-238",
					"maxclass" : "newobj",
					"numinlets" : 1,
					"numoutlets" : 0,
					"patching_rect" : [ 418.0, 155.0, 50.0, 20.0 ],
					"text" : "s ouput"
				}

			}
, 			{
				"box" : 				{
					"fontname" : "Arial",
					"fontsize" : 12.0,
					"id" : "obj-236",
					"maxclass" : "newobj",
					"numinlets" : 1,
					"numoutlets" : 1,
					"outlettype" : [ "" ],
					"patching_rect" : [ 460.0, 120.0, 111.0, 20.0 ],
					"text" : "prepend /noisiness"
				}

			}
, 			{
				"box" : 				{
					"fontname" : "Arial",
					"fontsize" : 12.0,
					"id" : "obj-235",
					"maxclass" : "newobj",
					"numinlets" : 1,
					"numoutlets" : 1,
					"outlettype" : [ "" ],
					"patching_rect" : [ 843.0, 665.0, 71.0, 20.0 ],
					"text" : "prepend /fft"
				}

			}
, 			{
				"box" : 				{
					"fontname" : "Arial",
					"fontsize" : 12.0,
					"id" : "obj-233",
					"maxclass" : "newobj",
					"numinlets" : 1,
					"numoutlets" : 1,
					"outlettype" : [ "" ],
					"patching_rect" : [ 738.0, 570.0, 117.0, 20.0 ],
					"text" : "prepend /brightness"
				}

			}
, 			{
				"box" : 				{
					"fontname" : "Arial",
					"fontsize" : 12.0,
					"id" : "obj-234",
					"maxclass" : "newobj",
					"numinlets" : 1,
					"numoutlets" : 0,
					"patching_rect" : [ 801.5, 710.0, 50.0, 20.0 ],
					"text" : "s ouput"
				}

			}
, 			{
				"box" : 				{
					"fontname" : "Arial",
					"fontsize" : 12.0,
					"id" : "obj-231",
					"maxclass" : "newobj",
					"numinlets" : 1,
					"numoutlets" : 1,
					"outlettype" : [ "" ],
					"patching_rect" : [ 418.0, 586.0, 92.0, 20.0 ],
					"text" : "loadmess 6969"
				}

			}
, 			{
				"box" : 				{
					"fontname" : "Arial",
					"fontsize" : 12.0,
					"id" : "obj-230",
					"maxclass" : "newobj",
					"numinlets" : 1,
					"numoutlets" : 1,
					"outlettype" : [ "" ],
					"patching_rect" : [ 411.0, 665.0, 79.0, 20.0 ],
					"text" : "prepend port"
				}

			}
, 			{
				"box" : 				{
					"bgcolor" : [ 0.0, 0.0, 0.0, 1.0 ],
					"fontname" : "Arial",
					"fontsize" : 12.0,
					"frgb" : 0.0,
					"id" : "obj-229",
					"maxclass" : "comment",
					"numinlets" : 1,
					"numoutlets" : 0,
					"patching_rect" : [ 580.0, 805.0, 150.0, 20.0 ],
					"presentation" : 1,
					"presentation_rect" : [ 229.5, 461.0, 165.0, 20.0 ],
					"prototypename" : "bb",
					"text" : "OSC",
					"textcolor" : [ 1.0, 1.0, 1.0, 1.0 ]
				}

			}
, 			{
				"box" : 				{
					"fontname" : "Arial",
					"fontsize" : 12.0,
					"id" : "obj-228",
					"maxclass" : "number",
					"numinlets" : 1,
					"numoutlets" : 2,
					"outlettype" : [ "int", "bang" ],
					"parameter_enable" : 0,
					"patching_rect" : [ 411.0, 629.0, 50.0, 20.0 ],
					"presentation" : 1,
					"presentation_rect" : [ 357.5, 483.0, 37.0, 20.0 ],
					"triangle" : 0
				}

			}
, 			{
				"box" : 				{
					"fontname" : "Arial",
					"fontsize" : 12.0,
					"id" : "obj-223",
					"maxclass" : "message",
					"numinlets" : 2,
					"numoutlets" : 1,
					"outlettype" : [ "" ],
					"patching_rect" : [ 179.0, 535.0, 111.0, 18.0 ],
					"text" : "set localhost, bang"
				}

			}
, 			{
				"box" : 				{
					"fontname" : "Arial",
					"fontsize" : 12.0,
					"id" : "obj-221",
					"maxclass" : "newobj",
					"numinlets" : 1,
					"numoutlets" : 1,
					"outlettype" : [ "bang" ],
					"patching_rect" : [ 179.0, 512.0, 60.0, 20.0 ],
					"text" : "loadbang"
				}

			}
, 			{
				"box" : 				{
					"fontname" : "Arial",
					"fontsize" : 12.0,
					"id" : "obj-220",
					"maxclass" : "newobj",
					"numinlets" : 2,
					"numoutlets" : 2,
					"outlettype" : [ "", "" ],
					"patching_rect" : [ 169.0, 629.0, 111.0, 20.0 ],
					"text" : "substitute text host"
				}

			}
, 			{
				"box" : 				{
					"bangmode" : 1,
					"border" : 1.0,
					"clickmode" : 1,
					"fontname" : "Arial",
					"fontsize" : 12.0,
					"frgb" : 0.0,
					"id" : "obj-217",
					"keymode" : 1,
					"lines" : 1,
					"maxclass" : "textedit",
					"numinlets" : 1,
					"numoutlets" : 4,
					"outlettype" : [ "", "int", "", "" ],
					"outputmode" : 1,
					"parameter_enable" : 0,
					"patching_rect" : [ 169.0, 593.5, 192.0, 17.0 ],
					"presentation" : 1,
					"presentation_rect" : [ 229.5, 483.0, 126.0, 20.0 ],
					"rounded" : 2.0,
					"text" : "localhost"
				}

			}
, 			{
				"box" : 				{
					"fontname" : "Arial",
					"fontsize" : 12.0,
					"id" : "obj-216",
					"maxclass" : "newobj",
					"numinlets" : 1,
					"numoutlets" : 0,
					"patching_rect" : [ 169.0, 665.0, 137.0, 20.0 ],
					"text" : "udpsend localhost 6969"
				}

			}
, 			{
				"box" : 				{
					"bgcolor" : [ 0.0, 0.0, 0.0, 1.0 ],
					"fontface" : 1,
					"fontname" : "Arial",
					"fontsize" : 12.0,
					"frgb" : 0.0,
					"id" : "obj-214",
					"maxclass" : "comment",
					"numinlets" : 1,
					"numoutlets" : 0,
					"patching_rect" : [ 1229.0, 321.0, 151.0, 20.0 ],
					"presentation" : 1,
					"presentation_rect" : [ 229.5, 109.25, 164.0, 20.0 ],
					"text" : "TOFSTUFF'S",
					"textcolor" : [ 1.0, 1.0, 1.0, 1.0 ],
					"textjustification" : 1
				}

			}
, 			{
				"box" : 				{
					"bgcolor" : [ 0.0, 0.0, 0.0, 1.0 ],
					"fontface" : 1,
					"fontname" : "Arial",
					"fontsize" : 36.0,
					"frgb" : 0.0,
					"id" : "obj-215",
					"maxclass" : "comment",
					"numinlets" : 1,
					"numoutlets" : 0,
					"patching_rect" : [ 1678.0, 352.0, 420.0, 48.0 ],
					"presentation" : 1,
					"presentation_rect" : [ 229.5, 129.25, 164.0, 48.0 ],
					"text" : "ANAL~",
					"textcolor" : [ 1.0, 1.0, 1.0, 1.0 ],
					"textjustification" : 1
				}

			}
, 			{
				"box" : 				{
					"fontname" : "Arial",
					"fontsize" : 12.0,
					"id" : "obj-211",
					"maxclass" : "newobj",
					"numinlets" : 1,
					"numoutlets" : 1,
					"outlettype" : [ "" ],
					"patching_rect" : [ 535.0, 629.0, 74.0, 20.0 ],
					"text" : "prepend set"
				}

			}
, 			{
				"box" : 				{
					"bgcolor" : [ 0.0, 0.0, 0.0, 0.0 ],
					"fontname" : "Arial",
					"fontsize" : 8.0,
					"frgb" : 0.0,
					"id" : "obj-210",
					"maxclass" : "comment",
					"numinlets" : 1,
					"numoutlets" : 0,
					"patching_rect" : [ 1100.0, 480.0, 32.0, 16.0 ],
					"presentation" : 1,
					"presentation_rect" : [ 287.5, 441.0, 49.0, 16.0 ],
					"text" : "0.73",
					"textjustification" : 1
				}

			}
, 			{
				"box" : 				{
					"fontname" : "Arial",
					"fontsize" : 12.0,
					"id" : "obj-209",
					"maxclass" : "newobj",
					"numinlets" : 1,
					"numoutlets" : 1,
					"outlettype" : [ "" ],
					"patching_rect" : [ 197.5, 352.0, 74.0, 20.0 ],
					"text" : "prepend set"
				}

			}
, 			{
				"box" : 				{
					"bgcolor" : [ 0.0, 0.0, 0.0, 1.0 ],
					"fontname" : "Arial",
					"fontsize" : 8.0,
					"frgb" : 0.0,
					"id" : "obj-208",
					"maxclass" : "comment",
					"numinlets" : 1,
					"numoutlets" : 0,
					"patching_rect" : [ 197.5, 375.0, 32.0, 16.0 ],
					"presentation" : 1,
					"presentation_rect" : [ 95.5, 479.0, 29.0, 16.0 ],
					"text" : "0.46",
					"textcolor" : [ 1.0, 1.0, 1.0, 1.0 ],
					"textjustification" : 1
				}

			}
, 			{
				"box" : 				{
					"fontname" : "Arial",
					"fontsize" : 12.0,
					"frgb" : 0.0,
					"id" : "obj-201",
					"maxclass" : "comment",
					"numinlets" : 1,
					"numoutlets" : 0,
					"patching_rect" : [ 1218.5, 835.0, 150.0, 20.0 ],
					"presentation" : 1,
					"presentation_rect" : [ 162.0, 349.75, 53.0, 20.0 ],
					"text" : "47 98",
					"textjustification" : 2
				}

			}
, 			{
				"box" : 				{
					"bgcolor" : [ 0.0, 0.0, 0.0, 1.0 ],
					"fontname" : "Arial",
					"fontsize" : 12.0,
					"frgb" : 0.0,
					"id" : "obj-196",
					"maxclass" : "comment",
					"numinlets" : 1,
					"numoutlets" : 0,
					"patching_rect" : [ 265.0, 270.0, 150.0, 20.0 ],
					"presentation" : 1,
					"presentation_rect" : [ 0.0, 448.0, 219.75, 20.0 ],
					"prototypename" : "bb",
					"text" : "/noisiness",
					"textcolor" : [ 1.0, 1.0, 1.0, 1.0 ]
				}

			}
, 			{
				"box" : 				{
					"id" : "obj-195",
					"maxclass" : "jit.pwindow",
					"numinlets" : 1,
					"numoutlets" : 2,
					"outlettype" : [ "", "" ],
					"patching_rect" : [ 460.0, 472.5, 220.0, 30.0 ],
					"presentation" : 1,
					"presentation_rect" : [ 0.0, 471.0, 220.0, 30.0 ]
				}

			}
, 			{
				"box" : 				{
					"fontname" : "Arial",
					"fontsize" : 12.0,
					"id" : "obj-187",
					"maxclass" : "newobj",
					"numinlets" : 1,
					"numoutlets" : 2,
					"outlettype" : [ "bang", "float" ],
					"patching_rect" : [ 484.0, 297.5, 32.5, 20.0 ],
					"text" : "t b f"
				}

			}
, 			{
				"box" : 				{
					"fontname" : "Arial",
					"fontsize" : 12.0,
					"id" : "obj-185",
					"maxclass" : "newobj",
					"numinlets" : 2,
					"numoutlets" : 1,
					"outlettype" : [ "float" ],
					"patching_rect" : [ 577.0, 378.0, 35.0, 20.0 ],
					"text" : "* 0.5"
				}

			}
, 			{
				"box" : 				{
					"fontname" : "Arial",
					"fontsize" : 13.0,
					"id" : "obj-181",
					"maxclass" : "newobj",
					"numinlets" : 2,
					"numoutlets" : 2,
					"outlettype" : [ "jit_matrix", "" ],
					"patching_rect" : [ 460.0, 405.0, 136.0, 21.0 ],
					"text" : "jit.op @op < @val 0.5"
				}

			}
, 			{
				"box" : 				{
					"fontname" : "Arial",
					"fontsize" : 13.0,
					"id" : "obj-25",
					"maxclass" : "newobj",
					"numinlets" : 1,
					"numoutlets" : 2,
					"outlettype" : [ "jit_matrix", "" ],
					"patching_rect" : [ 460.0, 352.0, 130.0, 21.0 ],
					"text" : "jit.noise 1 float 55 15"
				}

			}
, 			{
				"box" : 				{
					"bgcolor" : [ 0.0, 0.0, 0.0, 1.0 ],
					"fontname" : "Arial",
					"fontsize" : 12.0,
					"frgb" : 0.0,
					"id" : "obj-170",
					"maxclass" : "comment",
					"numinlets" : 1,
					"numoutlets" : 0,
					"patching_rect" : [ 580.0, 805.0, 150.0, 20.0 ],
					"presentation" : 1,
					"presentation_rect" : [ 229.5, 225.75, 164.0, 20.0 ],
					"prototypename" : "bb",
					"text" : "/fft",
					"textcolor" : [ 1.0, 1.0, 1.0, 1.0 ]
				}

			}
, 			{
				"box" : 				{
					"bgcolor" : [ 0.0, 0.0, 0.0, 1.0 ],
					"fontname" : "Arial",
					"fontsize" : 12.0,
					"frgb" : 0.0,
					"id" : "obj-169",
					"maxclass" : "comment",
					"numinlets" : 1,
					"numoutlets" : 0,
					"patching_rect" : [ 968.0, 517.5, 150.0, 20.0 ],
					"presentation" : 1,
					"presentation_rect" : [ 229.5, 416.0, 165.0, 20.0 ],
					"prototypename" : "bb",
					"text" : "/brightness",
					"textcolor" : [ 1.0, 1.0, 1.0, 1.0 ]
				}

			}
, 			{
				"box" : 				{
					"fontname" : "Geneva",
					"fontsize" : 9.0,
					"frgb" : 0.0,
					"id" : "obj-47",
					"maxclass" : "comment",
					"numinlets" : 1,
					"numoutlets" : 0,
					"patching_rect" : [ 1106.0, 939.0, 39.0, 17.0 ],
					"presentation" : 1,
					"presentation_rect" : [ 374.0, 391.75, 23.0, 17.0 ],
					"text" : "22",
					"textcolor" : [ 1.0, 1.0, 1.0, 1.0 ]
				}

			}
, 			{
				"box" : 				{
					"fontname" : "Geneva",
					"fontsize" : 9.0,
					"frgb" : 0.0,
					"id" : "obj-48",
					"maxclass" : "comment",
					"numinlets" : 1,
					"numoutlets" : 0,
					"patching_rect" : [ 1051.0, 939.0, 34.0, 17.0 ],
					"presentation" : 1,
					"presentation_rect" : [ 323.5, 391.75, 41.0, 17.0 ],
					"text" : "3 KHz",
					"textcolor" : [ 1.0, 1.0, 1.0, 1.0 ]
				}

			}
, 			{
				"box" : 				{
					"fontname" : "Geneva",
					"fontsize" : 9.0,
					"frgb" : 0.0,
					"id" : "obj-50",
					"linecount" : 2,
					"maxclass" : "comment",
					"numinlets" : 1,
					"numoutlets" : 0,
					"patching_rect" : [ 957.0, 939.0, 25.0, 27.0 ],
					"presentation" : 1,
					"presentation_rect" : [ 229.5, 391.75, 37.0, 17.0 ],
					"text" : "0 Hz",
					"textcolor" : [ 1.0, 1.0, 1.0, 1.0 ]
				}

			}
, 			{
				"box" : 				{
					"fontname" : "Geneva",
					"fontsize" : 9.0,
					"frgb" : 0.0,
					"id" : "obj-51",
					"linecount" : 2,
					"maxclass" : "comment",
					"numinlets" : 1,
					"numoutlets" : 0,
					"patching_rect" : [ 1004.0, 939.0, 32.0, 27.0 ],
					"presentation" : 1,
					"presentation_rect" : [ 276.5, 391.75, 47.0, 17.0 ],
					"text" : "1 KHz",
					"textcolor" : [ 1.0, 1.0, 1.0, 1.0 ]
				}

			}
, 			{
				"box" : 				{
					"bgcolor" : [ 0.0, 0.0, 0.0, 1.0 ],
					"fontname" : "Arial",
					"fontsize" : 12.0,
					"frgb" : 0.0,
					"id" : "obj-164",
					"maxclass" : "comment",
					"numinlets" : 1,
					"numoutlets" : 0,
					"patching_rect" : [ 550.0, 775.0, 150.0, 20.0 ],
					"presentation" : 1,
					"presentation_rect" : [ 0.0, 109.0, 223.0, 20.0 ],
					"prototypename" : "bb",
					"text" : "/level",
					"textcolor" : [ 1.0, 1.0, 1.0, 1.0 ]
				}

			}
, 			{
				"box" : 				{
					"bgcolor" : [ 0.0, 0.0, 0.0, 1.0 ],
					"fontname" : "Arial",
					"fontsize" : 12.0,
					"frgb" : 0.0,
					"id" : "obj-163",
					"maxclass" : "comment",
					"numinlets" : 1,
					"numoutlets" : 0,
					"patching_rect" : [ 535.0, 760.0, 150.0, 20.0 ],
					"presentation" : 1,
					"presentation_rect" : [ 112.5, 253.75, 107.5, 20.0 ],
					"prototypename" : "bb",
					"text" : "/segment",
					"textcolor" : [ 1.0, 1.0, 1.0, 1.0 ]
				}

			}
, 			{
				"box" : 				{
					"bgcolor" : [ 1.0, 1.0, 1.0, 1.0 ],
					"bgoncolor" : [ 0.0, 0.0, 0.0, 1.0 ],
					"blinktime" : 75,
					"border" : 1,
					"bordercolor" : [ 0.0, 0.0, 0.0, 1.0 ],
					"borderoncolor" : [ 0.0, 0.0, 0.0, 1.0 ],
					"fontname" : "Arial",
					"fontsize" : 12.0,
					"id" : "obj-153",
					"ignoreclick" : 1,
					"maxclass" : "textbutton",
					"numinlets" : 1,
					"numoutlets" : 3,
					"outlettype" : [ "", "", "int" ],
					"parameter_enable" : 0,
					"patching_rect" : [ 196.0, 198.0, 100.0, 20.0 ],
					"presentation" : 1,
					"presentation_rect" : [ 112.5, 277.75, 107.5, 42.0 ],
					"rounded" : 2.0,
					"text" : "0.00"
				}

			}
, 			{
				"box" : 				{
					"fontname" : "Arial",
					"fontsize" : 12.0,
					"id" : "obj-139",
					"maxclass" : "newobj",
					"numinlets" : 1,
					"numoutlets" : 1,
					"outlettype" : [ "" ],
					"patching_rect" : [ 1190.0, 900.0, 85.0, 20.0 ],
					"text" : "prepend /note"
				}

			}
, 			{
				"box" : 				{
					"fontname" : "Arial",
					"fontsize" : 12.0,
					"id" : "obj-136",
					"maxclass" : "newobj",
					"numinlets" : 1,
					"numoutlets" : 0,
					"patching_rect" : [ 1190.0, 946.0, 50.0, 20.0 ],
					"text" : "s ouput"
				}

			}
, 			{
				"box" : 				{
					"fontname" : "Geneva",
					"fontsize" : 9.0,
					"frgb" : 0.0,
					"id" : "obj-29",
					"linecount" : 3,
					"maxclass" : "comment",
					"numinlets" : 1,
					"numoutlets" : 0,
					"patching_rect" : [ 69.5, 411.0, 279.0, 38.0 ],
					"presentation" : 1,
					"presentation_linecount" : 3,
					"presentation_rect" : [ 229.5, 181.25, 164.0, 38.0 ],
					"text" : "By Thomas O Fredericks.\nBased on fiddle~ by Miller Puckette and analyzer~ by Tristan Jehan.",
					"textjustification" : 1
				}

			}
, 			{
				"box" : 				{
					"contdata" : 1,
					"id" : "obj-82",
					"maxclass" : "multislider",
					"numinlets" : 1,
					"numoutlets" : 2,
					"outlettype" : [ "", "" ],
					"parameter_enable" : 0,
					"patching_rect" : [ 1301.0, 740.0, 165.0, 27.0 ],
					"peakcolor" : [ 0.498039, 0.498039, 0.498039, 1.0 ],
					"presentation" : 1,
					"presentation_rect" : [ 0.0, 349.75, 220.0, 31.0 ],
					"setminmax" : [ 0.0, 12.0 ],
					"setstyle" : 2,
					"slidercolor" : [ 0.79295, 0.0, 0.0, 1.0 ],
					"thickness" : 1
				}

			}
, 			{
				"box" : 				{
					"fontname" : "Geneva",
					"fontsize" : 9.0,
					"id" : "obj-112",
					"maxclass" : "message",
					"numinlets" : 2,
					"numoutlets" : 1,
					"outlettype" : [ "" ],
					"patching_rect" : [ 1427.0, 480.0, 113.0, 15.0 ],
					"text" : "443.954987 0.004032"
				}

			}
, 			{
				"box" : 				{
					"fontname" : "Geneva",
					"fontsize" : 9.0,
					"id" : "obj-113",
					"maxclass" : "newobj",
					"numinlets" : 1,
					"numoutlets" : 1,
					"outlettype" : [ "" ],
					"patching_rect" : [ 1427.0, 460.0, 60.0, 17.0 ],
					"text" : "prepend set"
				}

			}
, 			{
				"box" : 				{
					"fontname" : "Geneva",
					"fontsize" : 9.0,
					"id" : "obj-114",
					"maxclass" : "message",
					"numinlets" : 2,
					"numoutlets" : 1,
					"outlettype" : [ "" ],
					"patching_rect" : [ 1364.0, 480.0, 114.0, 15.0 ],
					"text" : "327.606323 0.005886"
				}

			}
, 			{
				"box" : 				{
					"fontname" : "Geneva",
					"fontsize" : 9.0,
					"id" : "obj-115",
					"maxclass" : "newobj",
					"numinlets" : 1,
					"numoutlets" : 1,
					"outlettype" : [ "" ],
					"patching_rect" : [ 1364.0, 460.0, 60.0, 17.0 ],
					"text" : "prepend set"
				}

			}
, 			{
				"box" : 				{
					"fontname" : "Geneva",
					"fontsize" : 9.0,
					"id" : "obj-116",
					"maxclass" : "newobj",
					"numinlets" : 4,
					"numoutlets" : 4,
					"outlettype" : [ "", "", "", "" ],
					"patching_rect" : [ 1348.0, 431.0, 59.0, 17.0 ],
					"text" : "route 1 2 3"
				}

			}
, 			{
				"box" : 				{
					"fontname" : "Geneva",
					"fontsize" : 9.0,
					"id" : "obj-117",
					"maxclass" : "message",
					"numinlets" : 2,
					"numoutlets" : 1,
					"outlettype" : [ "" ],
					"patching_rect" : [ 1301.0, 480.0, 108.0, 15.0 ],
					"text" : "157.212769 0.001124"
				}

			}
, 			{
				"box" : 				{
					"fontname" : "Geneva",
					"fontsize" : 9.0,
					"id" : "obj-118",
					"maxclass" : "newobj",
					"numinlets" : 1,
					"numoutlets" : 1,
					"outlettype" : [ "" ],
					"patching_rect" : [ 1301.0, 460.0, 60.0, 17.0 ],
					"text" : "prepend set"
				}

			}
, 			{
				"box" : 				{
					"color" : [ 0.156863, 0.8, 0.54902, 1.0 ],
					"fontname" : "Geneva",
					"fontsize" : 9.0,
					"id" : "obj-142",
					"maxclass" : "newobj",
					"numinlets" : 1,
					"numoutlets" : 8,
					"outlettype" : [ "list", "float", "float", "float", "list", "bang", "list", "list" ],
					"patching_rect" : [ 960.0, 337.0, 212.0, 17.0 ],
					"text" : "analyzer~ 2048 512 4096 blackman70 0 3 10 3 list"
				}

			}
, 			{
				"box" : 				{
					"fontname" : "Geneva",
					"fontsize" : 9.0,
					"frgb" : 0.0,
					"id" : "obj-145",
					"maxclass" : "comment",
					"numinlets" : 1,
					"numoutlets" : 0,
					"patching_rect" : [ 1310.0, 510.0, 167.0, 17.0 ],
					"text" : "Sinusoidal components (freq, amp)"
				}

			}
, 			{
				"box" : 				{
					"fontname" : "Geneva",
					"fontsize" : 9.0,
					"frgb" : 0.0,
					"id" : "obj-149",
					"linecount" : 2,
					"maxclass" : "comment",
					"numinlets" : 1,
					"numoutlets" : 0,
					"patching_rect" : [ 1187.0, 361.0, 74.0, 27.0 ],
					"text" : "Raw MIDI pitch and amplitude"
				}

			}
, 			{
				"box" : 				{
					"fontname" : "Geneva",
					"fontsize" : 9.0,
					"frgb" : 0.0,
					"id" : "obj-151",
					"maxclass" : "comment",
					"numinlets" : 1,
					"numoutlets" : 0,
					"patching_rect" : [ 1364.0, 402.0, 51.0, 17.0 ],
					"text" : "up to 100"
				}

			}
, 			{
				"box" : 				{
					"fontname" : "Arial",
					"fontsize" : 12.0,
					"id" : "obj-7",
					"maxclass" : "newobj",
					"numinlets" : 2,
					"numoutlets" : 1,
					"outlettype" : [ "float" ],
					"patching_rect" : [ 738.0, 265.0, 32.5, 20.0 ],
					"text" : "f"
				}

			}
, 			{
				"box" : 				{
					"color" : [ 0.156863, 0.8, 0.54902, 1.0 ],
					"fontname" : "Arial",
					"fontsize" : 9.0,
					"id" : "obj-3",
					"maxclass" : "newobj",
					"numinlets" : 1,
					"numoutlets" : 2,
					"outlettype" : [ "bang", "float" ],
					"patching_rect" : [ 709.5, 217.0, 171.0, 17.0 ],
					"text" : "segment~ 1024 512 2048 black70 1 100"
				}

			}
, 			{
				"box" : 				{
					"id" : "obj-65",
					"maxclass" : "levelmeter~",
					"numinlets" : 1,
					"numoutlets" : 1,
					"outlettype" : [ "int" ],
					"patching_rect" : [ 752.5, 30.0, 128.0, 64.0 ],
					"presentation" : 1,
					"presentation_rect" : [ 0.0, 134.25, 223.0, 111.5 ]
				}

			}
, 			{
				"box" : 				{
					"id" : "obj-43",
					"maxclass" : "bpatcher",
					"name" : "inputselector.maxpat",
					"numinlets" : 0,
					"numoutlets" : 1,
					"outlettype" : [ "signal" ],
					"patching_rect" : [ 978.0, 26.0, 402.0, 120.0 ],
					"presentation" : 1,
					"presentation_rect" : [ 0.0, 0.0, 398.5, 109.0 ]
				}

			}
, 			{
				"box" : 				{
					"fontname" : "Arial",
					"fontsize" : 12.0,
					"id" : "obj-154",
					"maxclass" : "message",
					"numinlets" : 2,
					"numoutlets" : 1,
					"outlettype" : [ "" ],
					"patching_rect" : [ 196.0, 155.0, 186.0, 18.0 ],
					"text" : "text $1, bgoncolor $1 0 0 1, bang"
				}

			}
, 			{
				"box" : 				{
					"contdata" : 1,
					"id" : "obj-108",
					"ignoreclick" : 1,
					"maxclass" : "multislider",
					"numinlets" : 1,
					"numoutlets" : 2,
					"orientation" : 0,
					"outlettype" : [ "", "" ],
					"parameter_enable" : 0,
					"patching_rect" : [ 961.0, 550.0, 165.0, 17.0 ],
					"peakcolor" : [ 0.498039, 0.498039, 0.498039, 1.0 ],
					"presentation" : 1,
					"presentation_rect" : [ 229.5, 438.0, 165.0, 18.0 ],
					"setminmax" : [ 0.0, 1.0 ]
				}

			}
, 			{
				"box" : 				{
					"contdata" : 1,
					"id" : "obj-160",
					"ignoreclick" : 1,
					"maxclass" : "multislider",
					"numinlets" : 1,
					"numoutlets" : 2,
					"outlettype" : [ "", "" ],
					"parameter_enable" : 0,
					"patching_rect" : [ 354.0, 687.5, 164.0, 355.0 ],
					"peakcolor" : [ 0.498039, 0.498039, 0.498039, 1.0 ],
					"presentation" : 1,
					"presentation_rect" : [ 229.5, 246.25, 164.0, 162.5 ],
					"setminmax" : [ 0.0, 1.0 ],
					"setstyle" : 1,
					"size" : 25
				}

			}
 ],
		"lines" : [ 			{
				"patchline" : 				{
					"destination" : [ "obj-187", 0 ],
					"disabled" : 0,
					"hidden" : 0,
					"source" : [ "obj-1", 0 ]
				}

			}
, 			{
				"patchline" : 				{
					"destination" : [ "obj-209", 0 ],
					"disabled" : 0,
					"hidden" : 0,
					"source" : [ "obj-1", 0 ]
				}

			}
, 			{
				"patchline" : 				{
					"destination" : [ "obj-236", 0 ],
					"disabled" : 0,
					"hidden" : 0,
					"source" : [ "obj-1", 0 ]
				}

			}
, 			{
				"patchline" : 				{
					"destination" : [ "obj-18", 0 ],
					"disabled" : 0,
					"hidden" : 0,
					"source" : [ "obj-10", 0 ]
				}

			}
, 			{
				"patchline" : 				{
					"destination" : [ "obj-105", 0 ],
					"disabled" : 0,
					"hidden" : 0,
					"source" : [ "obj-102", 0 ]
				}

			}
, 			{
				"patchline" : 				{
					"destination" : [ "obj-108", 0 ],
					"disabled" : 0,
					"hidden" : 0,
					"source" : [ "obj-105", 0 ]
				}

			}
, 			{
				"patchline" : 				{
					"destination" : [ "obj-211", 0 ],
					"disabled" : 0,
					"hidden" : 0,
					"source" : [ "obj-105", 0 ]
				}

			}
, 			{
				"patchline" : 				{
					"destination" : [ "obj-112", 0 ],
					"disabled" : 0,
					"hidden" : 0,
					"source" : [ "obj-113", 0 ]
				}

			}
, 			{
				"patchline" : 				{
					"destination" : [ "obj-114", 0 ],
					"disabled" : 0,
					"hidden" : 0,
					"source" : [ "obj-115", 0 ]
				}

			}
, 			{
				"patchline" : 				{
					"destination" : [ "obj-113", 0 ],
					"disabled" : 0,
					"hidden" : 0,
					"midpoints" : [ 1384.166626, 453.0, 1436.5, 453.0 ],
					"source" : [ "obj-116", 2 ]
				}

			}
, 			{
				"patchline" : 				{
					"destination" : [ "obj-115", 0 ],
					"disabled" : 0,
					"hidden" : 0,
					"source" : [ "obj-116", 1 ]
				}

			}
, 			{
				"patchline" : 				{
					"destination" : [ "obj-118", 0 ],
					"disabled" : 0,
					"hidden" : 0,
					"midpoints" : [ 1357.5, 453.0, 1310.5, 453.0 ],
					"source" : [ "obj-116", 0 ]
				}

			}
, 			{
				"patchline" : 				{
					"destination" : [ "obj-117", 0 ],
					"disabled" : 0,
					"hidden" : 0,
					"source" : [ "obj-118", 0 ]
				}

			}
, 			{
				"patchline" : 				{
					"destination" : [ "obj-9", 0 ],
					"disabled" : 0,
					"hidden" : 0,
					"source" : [ "obj-12", 0 ]
				}

			}
, 			{
				"patchline" : 				{
					"destination" : [ "obj-137", 0 ],
					"disabled" : 0,
					"hidden" : 0,
					"source" : [ "obj-122", 0 ]
				}

			}
, 			{
				"patchline" : 				{
					"destination" : [ "obj-138", 0 ],
					"disabled" : 0,
					"hidden" : 0,
					"source" : [ "obj-122", 1 ]
				}

			}
, 			{
				"patchline" : 				{
					"destination" : [ "obj-143", 0 ],
					"disabled" : 0,
					"hidden" : 0,
					"source" : [ "obj-122", 2 ]
				}

			}
, 			{
				"patchline" : 				{
					"destination" : [ "obj-36", 0 ],
					"disabled" : 0,
					"hidden" : 0,
					"source" : [ "obj-13", 0 ]
				}

			}
, 			{
				"patchline" : 				{
					"destination" : [ "obj-139", 0 ],
					"disabled" : 0,
					"hidden" : 0,
					"source" : [ "obj-137", 0 ]
				}

			}
, 			{
				"patchline" : 				{
					"destination" : [ "obj-201", 0 ],
					"disabled" : 0,
					"hidden" : 0,
					"source" : [ "obj-137", 1 ]
				}

			}
, 			{
				"patchline" : 				{
					"destination" : [ "obj-82", 0 ],
					"disabled" : 0,
					"hidden" : 0,
					"source" : [ "obj-137", 2 ]
				}

			}
, 			{
				"patchline" : 				{
					"destination" : [ "obj-140", 0 ],
					"disabled" : 0,
					"hidden" : 0,
					"source" : [ "obj-138", 1 ]
				}

			}
, 			{
				"patchline" : 				{
					"destination" : [ "obj-141", 0 ],
					"disabled" : 0,
					"hidden" : 0,
					"source" : [ "obj-138", 2 ]
				}

			}
, 			{
				"patchline" : 				{
					"destination" : [ "obj-157", 0 ],
					"disabled" : 0,
					"hidden" : 0,
					"source" : [ "obj-138", 0 ]
				}

			}
, 			{
				"patchline" : 				{
					"destination" : [ "obj-136", 0 ],
					"disabled" : 0,
					"hidden" : 0,
					"source" : [ "obj-139", 0 ]
				}

			}
, 			{
				"patchline" : 				{
					"destination" : [ "obj-122", 0 ],
					"disabled" : 0,
					"hidden" : 0,
					"source" : [ "obj-142", 6 ]
				}

			}
, 			{
				"patchline" : 				{
					"destination" : [ "obj-159", 0 ],
					"disabled" : 0,
					"hidden" : 0,
					"source" : [ "obj-142", 4 ]
				}

			}
, 			{
				"patchline" : 				{
					"destination" : [ "obj-2", 0 ],
					"disabled" : 0,
					"hidden" : 0,
					"source" : [ "obj-142", 2 ]
				}

			}
, 			{
				"patchline" : 				{
					"destination" : [ "obj-88", 0 ],
					"disabled" : 0,
					"hidden" : 0,
					"source" : [ "obj-142", 3 ]
				}

			}
, 			{
				"patchline" : 				{
					"destination" : [ "obj-144", 0 ],
					"disabled" : 0,
					"hidden" : 0,
					"source" : [ "obj-143", 1 ]
				}

			}
, 			{
				"patchline" : 				{
					"destination" : [ "obj-146", 0 ],
					"disabled" : 0,
					"hidden" : 0,
					"source" : [ "obj-143", 2 ]
				}

			}
, 			{
				"patchline" : 				{
					"destination" : [ "obj-158", 0 ],
					"disabled" : 0,
					"hidden" : 0,
					"source" : [ "obj-143", 0 ]
				}

			}
, 			{
				"patchline" : 				{
					"destination" : [ "obj-195", 0 ],
					"disabled" : 0,
					"hidden" : 0,
					"source" : [ "obj-15", 0 ]
				}

			}
, 			{
				"patchline" : 				{
					"destination" : [ "obj-153", 0 ],
					"disabled" : 0,
					"hidden" : 0,
					"source" : [ "obj-154", 0 ]
				}

			}
, 			{
				"patchline" : 				{
					"destination" : [ "obj-136", 0 ],
					"disabled" : 0,
					"hidden" : 0,
					"source" : [ "obj-157", 0 ]
				}

			}
, 			{
				"patchline" : 				{
					"destination" : [ "obj-136", 0 ],
					"disabled" : 0,
					"hidden" : 0,
					"source" : [ "obj-158", 0 ]
				}

			}
, 			{
				"patchline" : 				{
					"destination" : [ "obj-160", 0 ],
					"disabled" : 0,
					"hidden" : 0,
					"source" : [ "obj-159", 0 ]
				}

			}
, 			{
				"patchline" : 				{
					"destination" : [ "obj-4", 0 ],
					"disabled" : 0,
					"hidden" : 0,
					"source" : [ "obj-159", 0 ]
				}

			}
, 			{
				"patchline" : 				{
					"destination" : [ "obj-12", 0 ],
					"disabled" : 0,
					"hidden" : 0,
					"source" : [ "obj-161", 0 ]
				}

			}
, 			{
				"patchline" : 				{
					"destination" : [ "obj-8", 0 ],
					"disabled" : 0,
					"hidden" : 0,
					"source" : [ "obj-161", 0 ]
				}

			}
, 			{
				"patchline" : 				{
					"destination" : [ "obj-16", 0 ],
					"disabled" : 0,
					"hidden" : 0,
					"source" : [ "obj-18", 1 ]
				}

			}
, 			{
				"patchline" : 				{
					"destination" : [ "obj-53", 0 ],
					"disabled" : 0,
					"hidden" : 0,
					"source" : [ "obj-18", 0 ]
				}

			}
, 			{
				"patchline" : 				{
					"destination" : [ "obj-15", 0 ],
					"disabled" : 0,
					"hidden" : 0,
					"source" : [ "obj-181", 0 ]
				}

			}
, 			{
				"patchline" : 				{
					"destination" : [ "obj-181", 1 ],
					"disabled" : 0,
					"hidden" : 0,
					"source" : [ "obj-185", 0 ]
				}

			}
, 			{
				"patchline" : 				{
					"destination" : [ "obj-185", 0 ],
					"disabled" : 0,
					"hidden" : 0,
					"source" : [ "obj-187", 1 ]
				}

			}
, 			{
				"patchline" : 				{
					"destination" : [ "obj-25", 0 ],
					"disabled" : 0,
					"hidden" : 0,
					"source" : [ "obj-187", 0 ]
				}

			}
, 			{
				"patchline" : 				{
					"destination" : [ "obj-102", 0 ],
					"disabled" : 0,
					"hidden" : 0,
					"source" : [ "obj-2", 0 ]
				}

			}
, 			{
				"patchline" : 				{
					"destination" : [ "obj-208", 0 ],
					"disabled" : 0,
					"hidden" : 0,
					"source" : [ "obj-209", 0 ]
				}

			}
, 			{
				"patchline" : 				{
					"destination" : [ "obj-210", 0 ],
					"disabled" : 0,
					"hidden" : 0,
					"source" : [ "obj-211", 0 ]
				}

			}
, 			{
				"patchline" : 				{
					"destination" : [ "obj-220", 0 ],
					"disabled" : 0,
					"hidden" : 0,
					"source" : [ "obj-217", 0 ]
				}

			}
, 			{
				"patchline" : 				{
					"destination" : [ "obj-216", 0 ],
					"disabled" : 0,
					"hidden" : 0,
					"source" : [ "obj-220", 0 ]
				}

			}
, 			{
				"patchline" : 				{
					"destination" : [ "obj-223", 0 ],
					"disabled" : 0,
					"hidden" : 0,
					"source" : [ "obj-221", 0 ]
				}

			}
, 			{
				"patchline" : 				{
					"destination" : [ "obj-217", 0 ],
					"disabled" : 0,
					"hidden" : 0,
					"source" : [ "obj-223", 0 ]
				}

			}
, 			{
				"patchline" : 				{
					"destination" : [ "obj-230", 0 ],
					"disabled" : 0,
					"hidden" : 0,
					"source" : [ "obj-228", 0 ]
				}

			}
, 			{
				"patchline" : 				{
					"destination" : [ "obj-36", 0 ],
					"disabled" : 0,
					"hidden" : 0,
					"source" : [ "obj-23", 0 ]
				}

			}
, 			{
				"patchline" : 				{
					"destination" : [ "obj-216", 0 ],
					"disabled" : 0,
					"hidden" : 0,
					"source" : [ "obj-230", 0 ]
				}

			}
, 			{
				"patchline" : 				{
					"destination" : [ "obj-228", 0 ],
					"disabled" : 0,
					"hidden" : 0,
					"source" : [ "obj-231", 0 ]
				}

			}
, 			{
				"patchline" : 				{
					"destination" : [ "obj-234", 0 ],
					"disabled" : 0,
					"hidden" : 0,
					"source" : [ "obj-233", 0 ]
				}

			}
, 			{
				"patchline" : 				{
					"destination" : [ "obj-234", 0 ],
					"disabled" : 0,
					"hidden" : 0,
					"source" : [ "obj-235", 0 ]
				}

			}
, 			{
				"patchline" : 				{
					"destination" : [ "obj-238", 0 ],
					"disabled" : 0,
					"hidden" : 0,
					"source" : [ "obj-236", 0 ]
				}

			}
, 			{
				"patchline" : 				{
					"destination" : [ "obj-238", 0 ],
					"disabled" : 0,
					"hidden" : 0,
					"source" : [ "obj-237", 0 ]
				}

			}
, 			{
				"patchline" : 				{
					"destination" : [ "obj-238", 0 ],
					"disabled" : 0,
					"hidden" : 0,
					"source" : [ "obj-239", 0 ]
				}

			}
, 			{
				"patchline" : 				{
					"destination" : [ "obj-216", 0 ],
					"disabled" : 0,
					"hidden" : 0,
					"source" : [ "obj-240", 0 ]
				}

			}
, 			{
				"patchline" : 				{
					"destination" : [ "obj-181", 0 ],
					"disabled" : 0,
					"hidden" : 0,
					"source" : [ "obj-25", 0 ]
				}

			}
, 			{
				"patchline" : 				{
					"destination" : [ "obj-55", 0 ],
					"disabled" : 0,
					"hidden" : 0,
					"source" : [ "obj-27", 0 ]
				}

			}
, 			{
				"patchline" : 				{
					"destination" : [ "obj-7", 1 ],
					"disabled" : 0,
					"hidden" : 0,
					"source" : [ "obj-3", 1 ]
				}

			}
, 			{
				"patchline" : 				{
					"destination" : [ "obj-7", 0 ],
					"disabled" : 0,
					"hidden" : 0,
					"source" : [ "obj-3", 0 ]
				}

			}
, 			{
				"patchline" : 				{
					"destination" : [ "obj-23", 0 ],
					"disabled" : 0,
					"hidden" : 0,
					"source" : [ "obj-30", 0 ]
				}

			}
, 			{
				"patchline" : 				{
					"destination" : [ "obj-154", 0 ],
					"disabled" : 0,
					"hidden" : 0,
					"source" : [ "obj-36", 1 ]
				}

			}
, 			{
				"patchline" : 				{
					"destination" : [ "obj-239", 0 ],
					"disabled" : 0,
					"hidden" : 0,
					"source" : [ "obj-36", 1 ]
				}

			}
, 			{
				"patchline" : 				{
					"destination" : [ "obj-13", 0 ],
					"disabled" : 0,
					"hidden" : 0,
					"source" : [ "obj-37", 0 ]
				}

			}
, 			{
				"patchline" : 				{
					"destination" : [ "obj-235", 0 ],
					"disabled" : 0,
					"hidden" : 0,
					"source" : [ "obj-4", 0 ]
				}

			}
, 			{
				"patchline" : 				{
					"destination" : [ "obj-11", 0 ],
					"disabled" : 0,
					"hidden" : 0,
					"source" : [ "obj-43", 0 ]
				}

			}
, 			{
				"patchline" : 				{
					"destination" : [ "obj-142", 0 ],
					"disabled" : 0,
					"hidden" : 0,
					"source" : [ "obj-43", 0 ]
				}

			}
, 			{
				"patchline" : 				{
					"destination" : [ "obj-3", 0 ],
					"disabled" : 0,
					"hidden" : 0,
					"source" : [ "obj-43", 0 ]
				}

			}
, 			{
				"patchline" : 				{
					"destination" : [ "obj-57", 0 ],
					"disabled" : 0,
					"hidden" : 0,
					"source" : [ "obj-43", 0 ]
				}

			}
, 			{
				"patchline" : 				{
					"destination" : [ "obj-65", 0 ],
					"disabled" : 0,
					"hidden" : 0,
					"source" : [ "obj-43", 0 ]
				}

			}
, 			{
				"patchline" : 				{
					"destination" : [ "obj-57", 1 ],
					"disabled" : 0,
					"hidden" : 0,
					"source" : [ "obj-55", 0 ]
				}

			}
, 			{
				"patchline" : 				{
					"destination" : [ "obj-28", 0 ],
					"disabled" : 0,
					"hidden" : 0,
					"source" : [ "obj-57", 1 ]
				}

			}
, 			{
				"patchline" : 				{
					"destination" : [ "obj-58", 0 ],
					"disabled" : 0,
					"hidden" : 0,
					"source" : [ "obj-57", 0 ]
				}

			}
, 			{
				"patchline" : 				{
					"destination" : [ "obj-59", 0 ],
					"disabled" : 0,
					"hidden" : 0,
					"source" : [ "obj-58", 0 ]
				}

			}
, 			{
				"patchline" : 				{
					"destination" : [ "obj-13", 1 ],
					"disabled" : 0,
					"hidden" : 0,
					"source" : [ "obj-6", 0 ]
				}

			}
, 			{
				"patchline" : 				{
					"destination" : [ "obj-237", 0 ],
					"disabled" : 0,
					"hidden" : 0,
					"source" : [ "obj-6", 0 ]
				}

			}
, 			{
				"patchline" : 				{
					"destination" : [ "obj-161", 0 ],
					"disabled" : 0,
					"hidden" : 0,
					"source" : [ "obj-65", 0 ]
				}

			}
, 			{
				"patchline" : 				{
					"destination" : [ "obj-1", 0 ],
					"disabled" : 0,
					"hidden" : 0,
					"source" : [ "obj-67", 0 ]
				}

			}
, 			{
				"patchline" : 				{
					"destination" : [ "obj-30", 0 ],
					"disabled" : 0,
					"hidden" : 0,
					"source" : [ "obj-7", 0 ]
				}

			}
, 			{
				"patchline" : 				{
					"destination" : [ "obj-6", 0 ],
					"disabled" : 0,
					"hidden" : 0,
					"source" : [ "obj-8", 0 ]
				}

			}
, 			{
				"patchline" : 				{
					"destination" : [ "obj-1", 0 ],
					"disabled" : 0,
					"hidden" : 0,
					"source" : [ "obj-88", 0 ]
				}

			}
 ],
		"parameters" : 		{
			"obj-43::obj-33::obj-5" : [ "Stereo[1]", "Stereo", 0 ],
			"obj-11::obj-5" : [ "Stereo", "Stereo", 0 ]
		}
,
		"dependency_cache" : [ 			{
				"name" : "inputselector.maxpat",
				"bootpath" : "/Users/thoma_000/Documents/projects/Anal/max project/Anal~/patchers",
				"patcherrelativepath" : ".",
				"type" : "JSON",
				"implicit" : 1
			}
, 			{
				"name" : "tof.strippath.maxpat",
				"bootpath" : "/Users/thoma_000/Documents/projects/Anal/max project/Anal~/patchers",
				"patcherrelativepath" : ".",
				"type" : "JSON",
				"implicit" : 1
			}
, 			{
				"name" : "outputselector~.maxpat",
				"bootpath" : "/Users/thoma_000/Documents/projects/Anal/max project/Anal~/patchers",
				"patcherrelativepath" : ".",
				"type" : "JSON",
				"implicit" : 1
			}
, 			{
				"name" : "z.scale.maxpat",
				"bootpath" : "/Users/thoma_000/Documents/projects/Anal/max project/Anal~/patchers",
				"patcherrelativepath" : ".",
				"type" : "JSON",
				"implicit" : 1
			}
, 			{
				"name" : "noteprocess.maxpat",
				"bootpath" : "/Users/thoma_000/Documents/projects/Anal/max project/Anal~/patchers",
				"patcherrelativepath" : ".",
				"type" : "JSON",
				"implicit" : 1
			}
, 			{
				"name" : "invhermite.maxpat",
				"bootpath" : "/Users/thoma_000/Documents/projects/Anal/max project/Anal~/patchers",
				"patcherrelativepath" : ".",
				"type" : "JSON",
				"implicit" : 1
			}
, 			{
				"name" : "segment~.mxe",
				"type" : "iLaF"
			}
, 			{
				"name" : "analyzer~.mxe",
				"type" : "iLaF"
			}
, 			{
				"name" : "jit.pass.mxe",
				"type" : "iLaF"
			}
 ]
	}

}
